<?xml version="1.0" encoding="utf-8"?>
<!-- Generator: Adobe Illustrator 25.2.3, SVG Export Plug-In . SVG Version: 6.00 Build 0)  -->
<svg version="1.1" id="Layer_1" xmlns="http://www.w3.org/2000/svg" xmlns:xlink="http://www.w3.org/1999/xlink" x="0px" y="0px"
	 viewBox="0 0 1546.2 970.2" style="enable-background:new 0 0 1546.2 970.2;" xml:space="preserve">

<path fill="none" stroke="#374151" stroke-width="7.8545" stroke-miterlimit="3.9273" id="fullTrack" vector-effect="non-scaling-stroke" class="st0" d="M 553.8 229.8 C 586.9 296.3 616.4 365 648.1 432.1 C 658.5 454.2 668.4 477.6 680.5 498.9 C 688.9 517.5 698.9 537.9 713.9 551.9 C 726.6 567.2 750.1 571.1 768.9 567.6 C 785.9 564.1 801.3 554.8 816 546 C 838.6 531.2 862.4 517.2 884.7 501.8 C 994.3 427.5 913 368.8 968.2 283.8 C 992.1 245.2 1037.1 220.8 1082.1 218 C 1102.9 214.9 1125.1 217.3 1145.9 215.1 C 1171.1 213.2 1196.3 207.3 1220.5 200.4 C 1261.2 187.5 1300.6 168.6 1339.3 151.3 C 1360.9 138.5 1389.8 133.1 1401.1 109.1 C 1412.4 82.3 1401 58 1438.4 48.2 C 1452.3 45.2 1465.8 50.8 1478.7 54.1 C 1491.8 57.4 1505 58.5 1518 58 C 1536.3 53.7 1545 32.8 1528.8 18.7 C 1517.3 10.1 1501.9 8.8 1488.5 8.9 C 1256.5 16.3 1023.3 13.2 791.4 16.8 C 648.8 17.5 506.4 18.1 364.3 17.8 C 346.3 18.4 333.3 32.5 335.8 50.2 C 344.1 66.3 351.9 85.4 339.7 101.3 C 334.3 112.1 321.4 117.5 312.2 123.9 C 294.6 135.6 274.9 144.5 259.2 158.3 C 233.5 176.8 215.5 203.5 198.3 229 C 170.1 271.3 149.4 317.7 131.5 364.5 C 76.8 503.5 30.4 647.6 17.8 796.4 C 14.4 830.4 8.9 863.5 9 896.5 C 14.4 930.4 34.6 930.4 63 931.8 C 91.5 940.5 95 960.7 126.8 961.2 C 146.3 960.8 165.5 953.7 182.8 947.4 C 201.9 940.9 221.5 929.3 226 909.1 C 231.5 876.7 205.8 844.4 189.7 818.8 C 172.6 790.3 155.4 761.7 139.6 733.4 C 88.5 649 113.6 527.2 198.6 476.2 C 219.4 460.1 254.1 439 273.2 466.4 C 280.8 478.9 282.5 493.6 286.9 506.7 C 292.4 530.6 315 548.5 339 545.9 C 358.7 543.8 378.3 536.3 395 527.2 C 431.3 508.6 426.1 462.1 409.7 431.9 C 391.4 391.7 363 357 342.9 319 C 325.1 290.8 305.7 254 323.3 222.8 C 328.5 207.1 341.1 195.3 351.8 184.5 C 361.1 173.5 370.8 162.5 380.3 153.1 C 404.8 124.9 436.2 82.1 477.5 99.2 C 505 113.1 516.9 144.7 527.6 170.9 C 535.2 191.5 545.1 210.2 553.8 229.8 Z"/>
<path fill="none" stroke="#EF4444" stroke-width="1.9636" stroke-miterlimit="3.9273" id="sector1" vector-effect="non-scaling-stroke" class="st1" d="M553.8,229.8c36.8,74.4,69.9,150.8,105.1,225.8c33.4,66.2,57,150.3,147.3,96.2c51-35.1,121-61,138.4-126.7c6-27.5,0.3-55.8,2-83.5c5.9-44.7,34.2-84.5,73.6-106c43.1-25.4,95-15.8,142.4-22.6c57.2-7.4,111.1-31.6,163-56"/>
<path fill="none" stroke="#3B82F6" stroke-width="1.9636" stroke-miterlimit="3.9273" id="sector2" vector-effect="non-scaling-stroke" class="st2" d="M1325.5,157.2c13.8-5.7,28-12.9,41.2-19.6c13.8-5.7,28.1-14.3,34.4-28.5c7-12.9,4-29.1,10.8-42.2c7.1-14,26.1-21.9,41.2-18.7c9.9-0.4,19.7,5.4,29.5,6.9c13,1.9,27.6,5.8,40.3,1c25.8-11.6,14.5-39.5-10.8-45.2c-16.4-3.3-33.5-1.6-50.1-1c-21.2,0.2-42.7,1-63.8,2c-339.9,2.8-680,6.3-1020.1,5.9c-26.5-2.9-51,10.8-39.3,40.3c22.2,34.2-7.9,57-36.3,71.7c-34,19.4-66.9,43-88.4,76.6c-42.5,57-70.3,123-94.3,189.5C70.6,521.3,31.8,652,18.7,786.5"/>
<path fill="none" stroke="#FBBF24" stroke-width="1.9636" stroke-miterlimit="3.9273" id="sector3" vector-effect="non-scaling-stroke" class="st3" d="M18.7,786.5c-2.9,23.6-4.8,48.2-7.9,71.7c-1.5,22-7.6,49.5,11.8,65.8c10,7.1,22.6,7.1,34.4,6.9c7.9,0.8,15.4,5,22.6,7.9c27.6,25.9,50.4,27.4,85.4,14.7c40.7-10.5,76.8-32.8,56-79.5c-10.3-26.9-29.2-49.7-43.2-74.6c-20.3-36.4-46.3-71.4-57.9-111.9c-12.5-44.4-6.5-93.1,10.8-135.5c20.2-41.9,57.3-73.5,98.2-94.3c22.2-11.8,47.1,0.4,51.1,25.5c7.8,30,16,61.2,53,62.8c14.6,0.9,28.9-4.8,42.2-9.8c24-6.5,46.5-25.9,47.1-52c1.2-33.5-17.5-63.6-34.4-91.3c-17.5-28.3-36.1-56.2-52-85.4c-19.7-31-28.5-66.4-5.9-98.2c18.2-23,39.2-44.1,58.9-65.8c12.8-16,27.6-31.6,45.2-42.2c19.6-9.2,46.4-7.7,59.9,10.8c16.6,15.8,25,38.1,33.4,58.9c7.6,19.9,17.8,39.4,26.5,58.9"/>
</svg>