<?xml version="1.0" encoding="utf-8"?>
<!-- Generator: Adobe Illustrator 25.2.3, SVG Export Plug-In . SVG Version: 6.00 Build 0)  -->
<svg version="1.1" id="Layer_1" xmlns="http://www.w3.org/2000/svg" xmlns:xlink="http://www.w3.org/1999/xlink" x="0px" y="0px"
	 viewBox="0 0 1279 801" style="enable-background:new 0 0 1279 801;" xml:space="preserve">
<path fill="none" stroke="#374151" stroke-width="7.8545" stroke-miterlimit="3.9273" id="fullTrack" vector-effect="non-scaling-stroke" class="st0" d="M 984 671 C 887.3 699.8 790 727.8 693 756 C 662 765.9 630.2 775 599 784 C 567.3 796.5 543.5 794.9 521 767 C 468.7 688.1 410.1 612.8 360 532 C 313.1 456.3 278.7 373.6 235 296 C 200.1 237.4 154.4 184.3 103 140 C 80.9 118.3 58.6 97.1 36 77 C 28.8 66.8 16.7 60.7 12 49 C -0.4 26 24.8 14.7 44 14 C 91.6 6.3 140.6 8.4 188 13 C 295.4 17.4 402 36.9 508 51 C 592.8 65.8 679.1 62 764 65 C 812 65.5 817.6 112.9 793 145 C 772.2 173.4 741.2 193.6 709 206 C 640 236.5 570.8 218.2 501 205 C 458.6 197.8 405 195 378 234 C 329.3 300.2 388.7 363.8 420 421 C 459.6 488.4 532.3 505.6 583 440.9 C 645.7 360.3 734.9 353.1 829 351.9 C 911.9 347.8 994.4 345.7 1076 340.9 C 1124.1 337.4 1181.5 332.3 1213 374.9 C 1235.4 399.9 1243.5 434 1255 463.9 C 1265.4 495 1279.8 532.2 1259 560.9 C 1231.7 602.9 1171.6 613.2 1128 628.9 C 1079.7 643.8 1032.3 658.7 984 671 Z"/>
<path fill="none" stroke="#EF4444" stroke-width="1.9636" stroke-miterlimit="3.9273" id="sector1" vector-effect="non-scaling-stroke" class="st1" d="M984,671c-96.7,28.8-194,56.8-291,85c-29,8.9-58.7,18.4-88,26
	c-20.4,6.9-44,16.1-64,3c-16.2-9.6-25.1-26.6-36-41c-12.6-20.1-27.4-39.4-41-59c-40.8-59.9-84.7-118-121-181
	c-62.7-112.5-107.2-237.7-202-329"/>
<path fill="none" stroke="#3B82F6" stroke-width="1.9636" stroke-miterlimit="3.9273" id="sector2" vector-effect="non-scaling-stroke" class="st2" d="M141,175c-29.2-27.5-59.5-55.1-88-83C37.8,76.6-8.9,45.1,16,23
	c13.2-10.7,33-8.2,49-12c34.8-3.6,70.1-1.5,105,0c73.6,5.6,147.9,10.9,221,24c82.7,9.5,164.7,26.4,248,28c30.8-0.6,62.2,1.4,93,1
	c19.7,0.5,41.1-1.7,59,8c18.7,13.2,20.2,38.6,11,58c-31.8,58.4-100.5,86.3-164,93c-58,2.8-113.7-18-171-22c-26.6-1.3-55,1.2-76,19
	c-24.3,19.4-35,53.7-30,84c6.8,39.4,33.2,72.2,53,106"/>
<path fill="none" stroke="#FBBF24" stroke-width="1.9636" stroke-miterlimit="3.9273" id="sector3" vector-effect="non-scaling-stroke" class="st3" d="M414,410c25.6,50.1,74.8,89.8,132,63c25-13.5,40.4-37.4,60-57
	c40.7-40.9,98-55.9,154-61c93.8-5.2,188.1-7.4,282-12c96.4-5.8,162.2-21.8,201,87c19.3,58.3,53.2,116.4-12,159
	c-32,18.4-67.8,28.9-103,40c-47.7,14.6-95.8,29.7-144,42"/>
</svg>
