<?xml version="1.0" encoding="utf-8"?>
<!-- Generator: Adobe Illustrator 25.2.3, SVG Export Plug-In . SVG Version: 6.00 Build 0)  -->
<svg version="1.1" id="Layer_1" xmlns="http://www.w3.org/2000/svg" xmlns:xlink="http://www.w3.org/1999/xlink" x="0px" y="0px"
	 viewBox="0 0 806 957.7" style="enable-background:new 0 0 806 957.7;" xml:space="preserve">

<path fill="none" stroke="#374151" stroke-width="7.8545" stroke-miterlimit="3.9273" id="fullTrack" vector-effect="non-scaling-stroke" class="st0" d="M 339.8 729.7 C 299.8 691.6 259.5 653.2 219.9 614.7 C 183.9 586.4 205.7 570.7 205.3 535.3 C 205.1 499.5 171.3 480.1 148.1 458.1 C 93.1 407.6 44.4 349 9.9 282.6 C 3.2 270.6 10.2 256.1 23.4 252.9 C 39.4 251 57.5 255.5 70.9 244.3 C 105 216.2 62.4 171.7 80.1 126.6 C 99 78.3 183.5 55.4 225.9 30.5 C 245.8 21.4 266.1 -2.1 288.5 11.6 C 297.3 17.4 305.4 24.6 315 28.3 C 329.3 35.8 345.7 36.6 360.9 40.2 C 385 44.1 407.8 55.9 423.5 74.2 C 447 102.9 453.9 141.2 460.8 176.3 C 465 199.2 472 222 473.2 244.9 C 470.7 266.7 441.7 263.4 426.8 295.7 C 418.9 312.7 419.1 331.8 416.5 349.7 C 408.2 401.9 410.9 458.2 438.6 504.1 C 457.2 534.8 483.9 560.2 511 582.4 C 533.6 603.2 551.5 612 581.7 604 C 607.4 599.4 633.1 610.7 651.4 627.3 C 684.2 653.2 715.2 682.5 739.4 715.9 C 758.8 746.3 766.8 781.4 778.3 814.2 C 783.7 831.6 789 848.4 794.5 865 C 799.7 879.9 802 896.8 789.6 908.2 C 782.2 915.7 771.8 919.6 762.6 922.8 C 752.6 927.3 742.4 931.3 732.9 935.2 C 702 948.9 671.9 962.4 644.9 934.1 C 629 919.2 608 836.3 582.8 846.7 C 570.3 854.2 566.7 870 556.9 879.6 C 524.7 907.3 492.9 881.1 470.5 855.8 C 425.9 813.9 383.7 771.2 339.8 729.7 Z"/>
<path fill="none" stroke="#EF4444" stroke-width="1.9636" stroke-miterlimit="3.9273" id="sector1" vector-effect="non-scaling-stroke" class="st1" d="M339.8,729.7c-42.5-40.2-84.7-81.1-126.9-121.5c-43.7-40.7,38.9-70.9-53.5-139.9c-45.6-40.4-87.3-86.1-121-137.2c-8.1-12-15.5-24.8-22.7-37.3c-5.2-9.9-13.4-22.5-4.9-32.9c14.4-17.2,39.6-1.5,57.8-15.1c21-14,16.9-38.8,11.3-59.9c-3.5-14.8-5.7-30.7-3.2-45.9c2.2-24.3,20.8-41.2,40-54c25.2-16.5,52.7-29.4,80.5-41"/>
<path fill="none" stroke="#3B82F6" stroke-width="1.9636" stroke-miterlimit="3.9273" id="sector2" vector-effect="non-scaling-stroke" class="st2" d="M197.2,45c15.4-7.3,30.9-15.3,45.4-24.3c12.3-7.5,26.6-18.1,41.6-11.3c13.2,6.9,24.2,18.3,38.9,22.1c25,8.7,52.9,7.9,76.1,22.1c42.7,25,53.1,77.6,61.6,122.6c3.3,15,6.4,30.3,9.2,45.4c2,9.6,5.3,20,1.6,29.7c-4.6,10-16.1,13.2-24.3,19.4c-24.6,17.6-27.2,44.7-30.2,72.4c-12.9,81-1,153.2,62.1,210.6"/>
<path fill="none" stroke="#FBBF24" stroke-width="1.9636" stroke-miterlimit="3.9273" id="sector3" vector-effect="non-scaling-stroke" class="st3" d="M479.1,553.6c13.3,13.3,27.7,25.9,42.7,37.3c12.9,12.7,31,18,48.6,15.1c16.6-4.2,34-4.2,50.2,1.6c23.4,10.5,43.1,28.3,61.6,45.9c19.7,17.8,39,36.7,54.5,58.3c26.9,40.3,35.7,89.4,51.8,134.5c11.9,34.7,21.1,58.6-21.1,74.5c-26.6,9.1-51.6,24.3-79.4,29.7c-26.8,2-46.7-14.3-56.2-38.3c-8.7-19.1-17.2-38.8-29.2-56.2c-16.9-25.2-30.8-0.4-40,16.2c-5.8,7.6-12.9,13.8-22.1,16.7c-38.4,11.3-62.6-28.7-88-50.2c-37.7-36.2-75-73.2-112.9-109.1"/>
</svg>
