<?xml version="1.0" encoding="utf-8"?>
<!-- Generator: Adobe Illustrator 25.2.3, SVG Export Plug-In . SVG Version: 6.00 Build 0)  -->
<svg version="1.1" id="Layer_1" xmlns="http://www.w3.org/2000/svg" xmlns:xlink="http://www.w3.org/1999/xlink" x="0px" y="0px"
	 viewBox="0 0 1358.7 976.8" style="enable-background:new 0 0 1358.7 976.8;" xml:space="preserve">

<path fill="none" stroke="#374151" stroke-width="7.8545" stroke-miterlimit="3.9273" id="fullTrack" vector-effect="non-scaling-stroke" class="st0" d="M 1163.7 295.2 C 1211.9 275.2 1261.4 257.6 1309.4 237.3 C 1367.1 221.6 1353.9 187.6 1332.2 144.3 C 1320.5 117.3 1308.7 90.1 1297.1 63 C 1289.8 47.6 1285.1 30.2 1275.6 16.2 C 1256.1 -5.5 1221.1 21.6 1198.8 27.3 C 1165.2 41.6 1130.4 53.1 1096.7 67 C 1002.5 101.7 911.7 145.3 818.9 183.5 C 796.9 193.5 772.8 200.3 753.2 214.7 C 731.6 238.2 775.5 294.2 783.8 320.7 C 787.8 331.7 794.9 342.4 793.6 354.5 C 787.1 376 759.6 378.4 741.6 385.7 C 711 395.2 681.3 408.5 653.8 424.7 C 636.3 436.1 600.2 447.9 607.6 474.2 C 618 496.7 612.7 509.2 592 521 C 564 537.6 539.6 559.3 513.3 577.6 C 484.2 601.2 453.4 622.2 424.8 645.3 C 399 660.6 391.1 628.7 388.4 609.5 C 384.8 595.7 381.8 581.6 377.3 568.5 C 369.5 534.3 361.4 519.4 323.9 518.4 C 293.9 518.1 301.4 490.9 281 480 C 261.7 470.9 241.3 484.8 223.1 489.8 C 186.7 503.8 151.7 521.6 117.1 538.6 C 40.7 573 19.6 634.6 8.9 712.2 C 5.4 754.2 11 796 9.6 837.8 C 10.3 868.6 13.4 871.9 41.5 885.9 C 60.9 895.3 79.8 906.4 98.8 915.8 C 123.3 928.7 147.4 943 171.7 955.5 C 195.6 970.7 217.3 978.1 234.8 950.3 C 249.1 924.2 258 895 273.8 870.3 C 301.4 828.1 349.3 806 379.2 766.9 C 405.4 733.7 401.9 687.7 427.3 655 C 454.2 621.4 492.6 600 524.9 573.7 C 582.8 527.4 651.3 499.4 718.8 472.9 C 866.9 411.8 1013.8 350.4 1163.7 295.2 Z"/>
<path fill="none" stroke="#EF4444" stroke-width="1.9636" stroke-miterlimit="3.9273" id="sector1" vector-effect="non-scaling-stroke" class="st1" d="M1163.7,295.2c40.5-16.4,81.5-32.4,122.3-48.1c12.2-5.3,25.2-9.5,37.1-15
	c14.7-4.6,28.1-16.9,28-33.2c-1.6-25.8-17-47.9-26-71.6c-16.5-35.5-30.5-72.6-46.8-108c-19.5-27.4-55.3,1.7-79.4,7.8
	C1162,42.3,1124.2,56,1087,70.1c-95.7,37.3-188.8,80.6-283.7,119.7c-18.3,9.4-42.6,13.2-54.7,31.2c-5.7,21.6,7.8,42.4,16.9,61.2
	C774,299,782.5,316,789,333.6c21.9,40.2-36.2,46.5-61.8,56.6c-32.6,12.1-64.1,27.7-93.7,46.2"/>
<path fill="none" stroke="#3B82F6" stroke-width="1.9636" stroke-miterlimit="3.9273" id="sector2" vector-effect="non-scaling-stroke" class="st2" d="M633.5,436.4c-59,31.3,3,48.5-32.5,78.7c-45.7,27.9-87,63.2-130.1,95
	c-11.2,8.5-22.9,16.7-33.8,25.4c-9.1,7-19.4,17.4-31.9,12.4c-10.6-6.7-13.4-20.2-15.6-31.9c-1.7-8.6-4.3-17.4-5.9-26
	c-13.9-40.1-8.9-72.3-63.1-71.6c-30.7-3.6-18.5-37.9-50.7-41.6c-15.2-0.1-29.3,7.6-43.6,11.7c-27.2,10.5-53.9,22.7-80,35.8
	C93.9,548,48.1,572.9,28.4,630.9C16.2,664.6,8.2,700.4,7.6,736.3c0.7,36.4,2,73,2.6,109.3c-2.8,20,12,32.6,29.3,39
	c11.4,6,23,12.3,34.5,18.2c38.2,20,76.2,41.2,113.9,61.8"/>
<path fill="none" stroke="#FBBF24" stroke-width="1.9636" stroke-miterlimit="3.9273" id="sector3" vector-effect="non-scaling-stroke" class="st3" d="M187.8,964.6c29.1,15.6,49.4-10.8,57.3-36.4c7.5-15.8,13.9-32.3,22.8-47.5
	c12.9-26.3,35.6-45.3,57.9-63.1c112.1-84.5,47.9-117.7,124.9-187.4c46.6-35.4,91.9-73.4,143.1-102.1c59.4-31.5,123.4-54.2,185.4-80
	C906,394.9,1033.8,344,1162.4,295.2"/>
</svg>
