<?xml version="1.0" encoding="utf-8"?>
<!-- Generator: Adobe Illustrator 25.2.3, SVG Export Plug-In . SVG Version: 6.00 Build 0)  -->
<svg version="1.1" id="Layer_1" xmlns="http://www.w3.org/2000/svg" xmlns:xlink="http://www.w3.org/1999/xlink" x="0px" y="0px"
	 viewBox="0 0 687.9 1004.4" style="enable-background:new 0 0 687.9 1004.4;" xml:space="preserve">
<style type="text/css">
	.st0{fill:none;stroke:#374151;stroke-width:6.6462;stroke-miterlimit:3.3231;}
	.st1{fill:none;stroke:#EF4444;stroke-width:1.6615;stroke-miterlimit:3.3231;}
	.st2{fill:none;stroke:#3B82F6;stroke-width:1.6615;stroke-miterlimit:3.3231;}
	.st3{fill:none;stroke:#FBBF24;stroke-width:1.6615;stroke-miterlimit:3.3231;}
</style>
<path fill="none" stroke="#374151" stroke-width="7.8545" stroke-miterlimit="3.9273" id="fullTrack" vector-effect="non-scaling-stroke" class="st0" d="M 21.6 617.3 C 28.4 482.3 33.4 347 39 211.9 C 40.7 170.2 42.7 128.1 44 86.5 C 46 65 43.4 42.6 49 21.6 C 52.7 8.8 67.5 4.4 78.1 12.5 C 87.3 21.7 95.1 32.8 105.5 40.7 C 119.4 50.1 137.3 54.3 153.7 49.8 C 169.8 47.5 185.2 39.8 201.1 35.7 C 233.9 28.1 267.3 36.5 300 41.5 C 383.6 58.2 467.7 73.6 551.7 88.9 C 578.4 94.1 605.5 99.2 632.3 103.9 C 669.3 109.1 691.2 125 673.8 164.5 C 666.3 183.6 646.4 192.5 630.6 203.5 C 613.6 212.9 598.6 226.3 584.9 240.1 C 570.1 256.5 553.6 272.8 543.4 292.4 C 531.3 310.7 523.5 332.7 504.4 344.7 C 460.5 374.1 432.6 336 380.6 369.6 C 360.8 383.2 346 402.3 333.2 421.9 C 319.6 442 288.5 514.2 259.3 498.3 C 235.7 483.2 246.6 452.2 251 430.2 C 257.2 403.6 264.9 377.1 268.4 350.4 C 276.5 301 294.2 249.5 278.4 200.9 C 270.3 179.8 247.9 143.8 221.9 155.2 C 210.8 166.2 211.8 183.7 209.4 197.6 C 201.1 260.2 197.5 323.3 195.3 386.2 C 192.2 463.9 189.8 541.7 185.3 618.8 C 183.5 639.6 183 660.8 182 681.1 C 179.7 702.6 180.1 728 197.8 742.6 C 232.2 769.7 283.4 752.8 309.1 721.8 C 339.2 684.3 341.4 629.6 379.7 598.8 C 422.4 559.8 482.9 565.1 530.9 589.7 C 555.9 601.7 584.2 613 599.9 636.3 C 615.9 659.9 610 690.1 589 707.7 C 567.8 724.2 542.2 733.2 520 746.7 C 465.3 776.5 411.2 807.1 357.2 836.4 C 289.1 874.6 221 912.5 153.7 950.2 C 135.2 959.7 117.8 970.4 100.5 980.1 C 84.9 988.9 68.6 999.4 50.7 995 C -8.6 976.4 11.4 875.4 10.9 828 C 14.5 757.4 15.3 687.5 21.6 617.3 Z"/>
<path fill="none" stroke="#EF4444" stroke-width="1.9636" stroke-miterlimit="3.9273" id="sector1" vector-effect="non-scaling-stroke" class="st1" d="M21.6,617.3c9.9-193.7,15.9-388,24.9-581.5C45.3,20.6,58.2,0.6,74.8,10.8
	c10.6,6.3,17,18.7,26.6,26.6C116.6,51,137.7,53.6,157,49.9c24.2-7.6,48.1-17.7,73.9-17.4c44.1,3,88.1,12.7,131.3,21.6
	c71.7,13.2,143.5,26.4,215.2,39.9c20.6,3.8,41.7,7.5,62.3,11.6c34.1,3.9,49.5,26.8,34.1,59c-10.1,23.7-37,33-56.5,47.4
	c-26,19.2-47.7,43.5-67.3,69"/>
<path fill="none" stroke="#3B82F6" stroke-width="1.9636" stroke-miterlimit="3.9273" id="sector2" vector-effect="non-scaling-stroke" class="st2" d="M550,280.8c-20.9,34.8-34.2,72.3-80.6,76.4c-17.5,0-35-5.1-52.3-1.7
	c-38.7,5.9-66.7,37.6-85.6,69.8c-14.5,22.8-26.1,48.1-45.7,67.3c-16.1,17.2-38.1,4.4-40.7-16.6c-3-18.9,5.4-38,8.3-56.5
	c9.7-35.5,15.7-71.8,22.4-108c10.4-50.5,20.3-116-26.6-151.2c-7.4-7.5-22.2-11.1-29.9-2.5c-7.2,9.6-7.3,22-9.1,33.2
	c-3,20.4-5.1,41-6.6,61.5c-8.4,80.2-8.8,161.7-12.5,242.6c-1.5,48.7-4.2,97.6-7.5,146.2c1.6,31.6-12,69.3,9.1,96.4
	C227,773.6,290.3,753,314,714.5c20.7-27.5,25.3-63.4,44.9-91.4c41.5-63.4,115.1-63.9,177-30.7"/>
<path fill="none" stroke="#FBBF24" stroke-width="1.9636" stroke-miterlimit="3.9273" id="sector3" vector-effect="non-scaling-stroke" class="st3" d="M535.9,592.4c25.8,12.2,59.2,25.8,69,54.8c7.8,16.2,4.4,35.7-5.8,49.8
	c-15.8,20.8-41.8,28.5-63.1,41.5c-56.4,29.6-111.7,61.9-167.8,92.2c-69.6,38.3-138.8,77.8-208.5,116.3c-19.7,10.6-39.6,22.1-59,33.2
	c-14.1,7.8-28.7,17.6-45.7,15.8c-64-13.4-43.7-119.6-44-167.8c3.6-70.2,4.5-140.9,10.8-211"/>
</svg>
