<?xml version="1.0" encoding="utf-8"?>
<!-- Generator: Adobe Illustrator 25.2.3, SVG Export Plug-In . SVG Version: 6.00 Build 0)  -->
<svg version="1.1" id="Layer_1" xmlns="http://www.w3.org/2000/svg" xmlns:xlink="http://www.w3.org/1999/xlink" x="0px" y="0px"
	 viewBox="0 0 629.8 1000.5" style="enable-background:new 0 0 629.8 1000.5;" xml:space="preserve">
<path fill="none" stroke="#374151" stroke-width="7.8545" stroke-miterlimit="3.9273" id="fullTrack" vector-effect="non-scaling-stroke" class="st0" d="M 197.6 167 C 175.9 133.8 155.2 100 133.4 66.8 C 127.7 58.5 122.9 49 116.9 41 C 112.7 32.4 103.3 24.1 107.2 13.8 C 113.4 3 124.6 7.6 134 11.9 C 143.1 16.8 152.5 21.6 161.7 26.5 C 192.8 44.2 225.7 60.7 251.2 86.3 C 282.5 115.5 308 150.9 339.7 179.7 C 388.6 218.4 399.5 218.2 417.5 282.3 C 436.7 329.8 475.8 365.9 499.2 411.2 C 515.8 443.6 523.8 479.4 536.2 513.4 C 561.8 582.1 583.9 652.7 606.7 722.1 C 610.6 732.8 613.5 744 617.4 754.2 C 620.4 764.3 624.3 774.7 621.8 784.8 C 619.9 796.7 609.6 803.7 602.8 812.5 C 596.6 821.4 596 832.6 597.9 842.7 C 601.4 852.7 606.6 862 608.1 872.4 C 609.2 887.2 603.3 902.4 592 911.8 C 571.4 930.7 546.9 945.3 525.3 962.9 C 511.1 973.2 498.1 985.8 482 992.1 C 470.9 995.7 455.3 993.6 449.9 982.4 C 439.6 960.9 461.9 944.9 478.6 937.2 C 521.8 917.4 520.6 889.8 501.4 851.6 C 492.1 830.3 485.1 807.7 481.5 785 C 476.3 761.9 472.2 738.5 466.9 715.9 C 462.9 698.4 460.2 679.7 447.9 666.3 C 420.5 632.6 365.2 637.1 336.5 666.3 C 316 685.6 308.1 713.5 300.5 739.3 C 292.8 766.2 283.9 792.9 274.2 818.6 C 268.6 840.4 250 861.3 226 856 C 218.6 855.2 212.4 851 206.1 848.2 C 197.9 844.8 188.7 843.3 180.3 844.8 C 149.7 849.1 139.6 881.7 128.3 905.6 C 110.9 944 92 965.3 51.4 936.7 C 31.1 923.3 10.3 906.8 7.6 881.2 C 1.3 826.9 49.4 772.2 87.4 738.7 C 110.9 718.1 139.3 704.9 165.7 689.6 C 218.6 661.9 251.5 619.7 271.7 564.6 C 290.2 521.7 285.5 487.2 263.9 447.4 C 247 411.1 231.4 374 225.5 334.5 C 222.9 317 220.4 299.6 218.7 282.4 C 217 273 216.3 259 227.5 256.1 C 232.1 254.3 237.2 255.9 241.6 254.2 C 259.7 241.1 232 218.9 224.1 207.5 C 214.7 194.3 205.8 180.8 197.6 167 Z"/>
<path fill="none" stroke="#EF4444" stroke-width="1.9636" stroke-miterlimit="3.9273" id="sector1" vector-effect="non-scaling-stroke" class="st1" d="M197.6,167c-29.5-46.3-59.8-92.5-88.5-139.1c-5.7-7.5-2.5-19.6,7.3-20.9
	c9.8-0.2,18.8,5.8,27.2,10.2c29.1,14.3,57.4,31.3,84.6,49.1C266.5,95.9,295,135.6,329,169.4c20.1,22.6,50.5,34.1,67.1,59.8
	c15.5,21.5,16.7,49.5,30.2,72c20.8,37.3,50.6,69,71,106.5c18.2,33,26,70.4,38.9,105.6c24.4,66.1,46.2,133.3,67.6,200.4"/>
<path fill="none" stroke="#3B82F6" stroke-width="1.9636" stroke-miterlimit="3.9273" id="sector2" vector-effect="non-scaling-stroke" class="st2" d="M603.9,713.8c5,13.1,8.7,27.2,13.6,40.4c5,14.2,8.6,31-1.5,43.8
	c-7.5,8.5-17.8,16.6-18.5,28.7c-4.2,24.8,21.2,41.8,6.3,69.1c-5.6,14.2-19.1,22.7-30.6,31.6c-11.3,7.7-21.9,16.5-33.1,24.3
	c-18,11.9-47.9,43.2-68.6,41.8c-15.5,1.6-28.1-13.9-22.9-28.7c3.7-11.3,13.4-19.3,23.8-24.3c23.9-10.4,48.8-29,40.9-58.4
	c-7.8-26.6-22.7-51.1-27.7-78.8c-6-26.4-11.2-53.2-16.5-79.8c-4.6-16.6-6.1-34.7-15.1-49.6c-26.9-44.4-94.9-38.9-124.5,0
	c-16.8,20.8-23.6,47.3-30.6,72.5c-9,28.4-18,57.1-29.2,84.6c-6.5,13.8-19.9,26.2-36,25.3c-26.3-0.3-33.9-22.2-66.6-7.3
	c-22.4,11.8-29.4,38.5-39.9,59.8c-18.6,39.1-38.1,55-77.4,26.3"/>
<path fill="none" stroke="#FBBF24" stroke-width="1.9636" stroke-miterlimit="3.9273" id="sector3" vector-effect="non-scaling-stroke" class="st3" d="M47.3,933.2c-86.6-48.8-13.1-150.1,40.4-194.6
	c23.3-20.5,51.7-33.7,78.3-49.1c56-29.2,88.5-74,109-132.8c17.8-45.7,6.3-75.8-14.1-117.2c-15.8-33.5-29.4-68.3-35-105.1
	c-2.6-17.2-5.1-34.8-6.8-52.1c-1.6-9.1-2.6-23.4,8.8-26.3c4.5-1.7,9.6-0.3,14.1-1.9c18.1-13.3-9.4-35-17.5-46.7
	c-9.6-12.9-18.6-26.6-26.8-40.4"/>
</svg>
