<?xml version="1.0" encoding="utf-8"?>
<!-- Generator: Adobe Illustrator 25.2.3, SVG Export Plug-In . SVG Version: 6.00 Build 0)  -->
<svg version="1.1" id="Layer_1" xmlns="http://www.w3.org/2000/svg" xmlns:xlink="http://www.w3.org/1999/xlink" x="0px" y="0px"
	 viewBox="0 0 639.2 986.7" style="enable-background:new 0 0 639.2 986.7;" xml:space="preserve">

<path fill="none" stroke="#374151" stroke-width="7.8545" stroke-miterlimit="3.9273" id="fullTrack" vector-effect="non-scaling-stroke" class="st0" d="M 65.1 700.9 C 77.9 756.1 93.6 811 106.4 866.2 C 119.1 903.1 121.2 962.6 163.7 977 C 200.9 985.8 217.8 933.9 267 942.3 C 291.2 943.1 311.3 961.9 335.6 963.9 C 394.3 974.4 451.6 937.4 479.3 886.9 C 507.2 833.8 511.9 771.7 530 715 C 559.8 599.2 589.7 482.8 620.2 367.5 C 625 348.4 633.4 328.6 629.6 309.3 C 621.8 268.6 578.4 247.1 540.4 247.3 C 475.4 240.2 412.1 276.7 378.9 330.9 C 350.5 377.9 320.1 423.8 288.7 468 C 257.9 515.3 222 571.8 158.2 564.7 C 103.8 558.4 73.9 509.3 67.1 459.5 C 64.5 435.4 53.2 406.2 70.9 386.3 C 100.9 356.5 132.1 407.9 164.8 394.8 C 193.8 388.2 199.3 353.3 185.4 330.9 C 168.4 304.6 140.7 286.6 125.3 259.5 C 112.5 236.8 97.5 212.5 98.1 186.2 C 98.3 166.3 117.2 152.3 135.7 159 C 152 167 162 183.4 170.4 198.4 C 203.5 249.8 274.8 267.7 324.4 229.4 C 362.4 201.5 379.3 154.7 405.2 117.6 C 412.6 102.6 424.6 90 425.8 73.5 C 427 30.2 375.1 16.5 341.2 10.6 C 252.6 0.7 153 40 93.3 104.6 C 49.9 154 43.1 221.5 29.4 282.1 C 17.2 347.5 3.4 413.7 10.6 479.3 C 15 517.4 26.1 554.2 35 590.1 C 45.6 627.5 52.9 664.7 65.1 700.9 Z"/>
<path fill="none" stroke="#EF4444" stroke-width="1.9636" stroke-miterlimit="3.9273" id="sector1" vector-effect="non-scaling-stroke" class="st1" d="M65.1,700.9c13.5,57.7,29.7,115.1,43.2,172.8
	c10.8,32.3,13.3,72.5,40.4,95.8c40.6,30.3,64.3-28.9,104.2-27.2c25.4-4.6,48,12.3,71.4,19.7c52,13.1,105.6-10.2,139-50.7
	c37.7-49.5,43.8-113.4,60.1-171.9c22.4-85.6,44.5-171.7,66.7-257.3"/>
<path fill="none" stroke="#3B82F6" stroke-width="1.9636" stroke-miterlimit="3.9273" id="sector2" vector-effect="non-scaling-stroke" class="st2" d="M590.1,482.1c9.2-38.2,20.7-76.4,30.1-114.6c7.3-24.9,17-52.7,2.8-77
	c-21.5-38.3-70.3-47.4-110.8-43.2c-42.5,3.4-83.7,23.2-111.8,55.4c-21.2,23.5-35.5,53-53.5,78.9c-17.9,29.5-38.6,58.1-58.2,86.4
	c-19.6,28.7-38.2,59.9-66.7,80.8c-28.6,18.5-66.4,22.2-96.7,5.6c-32.6-17.2-51.9-52.5-56.3-88.3c-5.1-28-19.9-70.9,12.2-87.3
	c25.9-9,44.9,17.1,69.5,17.8c26,2.2,47.8-22.4,41.3-47.9c-4.5-22.3-22.3-37.9-37.6-53.5c-27.5-26.6-47.3-61.6-56.3-98.6
	c-4.1-38.8,32.4-53,56.3-22.5c10.9,14.6,19.5,30.8,31.9,44.1c21,20,49.5,33,78.9,31.9c56.3-0.1,92.8-49.5,116.5-94.9"/>
<path fill="none" stroke="#FBBF24" stroke-width="1.9636" stroke-miterlimit="3.9273" id="sector3" vector-effect="non-scaling-stroke" class="st3" d="M381.6,155.3c9.9-14.8,19-30.8,28.2-46c6.7-11.1,14.9-22.2,16-35.7
	c1.7-38.9-43.2-55.2-75.1-61C260.2-4.4,139.1,43,83.9,116.8C54.3,154.8,47,203.6,36,249.2C24.9,306,12.8,363.2,8.8,421
	c-3.4,94.3,33.1,185.3,54.5,276.1"/>
</svg>
