<?xml version="1.0" encoding="utf-8"?>
<!-- Generator: Adobe Illustrator 25.2.3, SVG Export Plug-In . SVG Version: 6.00 Build 0)  -->
<svg version="1.1" id="Layer_1" xmlns="http://www.w3.org/2000/svg" xmlns:xlink="http://www.w3.org/1999/xlink" x="0px" y="0px"
	 viewBox="0 0 369.8 1022" style="enable-background:new 0 0 369.8 1022;" xml:space="preserve">

<path fill="none" stroke="#374151" stroke-width="7.8545" stroke-miterlimit="3.9273" id="fullTrack" vector-effect="non-scaling-stroke" class="st0" d="M 335.3 835.8 C 339.8 864.5 338.7 893.6 334.2 922.2 C 334 938.1 325.7 956 336.3 970.1 C 343.5 982.3 367.4 983.6 362.1 1001.7 C 345.4 1030.5 301.4 1004.8 278.9 995.9 C 254.3 982.8 233.3 964.2 212.5 945.8 C 191 926.3 204.4 908.5 196.2 885.2 C 177.9 844.7 123.1 829.6 115.6 782.5 C 111.9 763.6 114.4 743.9 114.5 725.1 C 115.1 713.1 118.3 698.2 109.8 688.8 C 97.4 673.3 77.3 685.9 60.8 670.4 C 42.6 656.7 41.2 632.3 39.2 611.9 C 36.4 585.9 35.5 559.7 35.5 533.9 C 35.1 471 44.5 408.3 64 349 C 75.8 325.1 101.1 332.8 115.1 302.6 C 125.9 275.7 130.3 246.5 135.1 218.3 C 141.2 186.6 147.6 154.4 145.6 122.4 C 144.4 97.4 138.7 73 133.5 49.1 C 131.9 37.7 126.3 26.9 128.3 15.9 C 132.4 2 147.5 5.8 150.4 18.6 C 155.8 37.7 154.4 58.1 160.9 76.5 C 188.9 153.7 224.9 228.3 242 308.3 C 257.8 377.2 272.6 445.9 286.8 514.3 C 290.7 533.2 294.3 551.5 298.4 569.6 C 300.3 580.7 304.3 592.1 301.5 602.8 C 298 613.2 290.1 621.9 289.9 632.8 C 287.9 655 299.3 675.7 303.1 696.5 C 316.1 743 326.1 789 335.3 835.8 Z"/>
<path fill="none" stroke="#EF4444" stroke-width="1.9636" stroke-miterlimit="3.9273" id="sector1" vector-effect="non-scaling-stroke" class="st1" d="M335.3,835.8c4.4,27.6,3.3,55.7-0.5,83.2c-0.4,15.5-8.2,32.9-0.5,47.4
	c4.8,14.8,29.3,14.5,28.5,31.6c-7.9,34.7-66.7,6.3-86.4-3.7c-24.7-13.7-46.8-32.4-66.9-52.2c-9.7-8.8-10.8-21.9-10-34.2
	c2.6-61.8-86-69.5-85.3-140.1"/>
<path fill="none" stroke="#3B82F6" stroke-width="1.9636" stroke-miterlimit="3.9273" id="sector2" vector-effect="non-scaling-stroke" class="st2" d="M114.1,767.8c-1.7-17.1,1.1-34.5,1.1-51.6c3.7-22.9-7.7-38.5-31.6-36.4
	c-50.9-7.4-42.9-70.6-47.4-109.1c-3.1-71.1,3.5-142.5,24.2-210.7c6-33.1,35.9-25.8,50.6-50.6c7.5-9.9,9.5-22.7,13.2-34.2
	c3.7-17.6,7.9-35.4,10.5-53.2c6.7-35.8,14-72,10.5-108.5"/>
<path fill="none" stroke="#FBBF24" stroke-width="1.9636" stroke-miterlimit="3.9273" id="sector3" vector-effect="non-scaling-stroke" class="st3" d="M145.1,113.5c-2.3-24.2-8.1-47.9-13.2-71.6c-1.7-8.4-5.5-17.3-3.7-25.8
	c1.7-9.1,13.4-12.3,19-4.2c7.6,13.8,6.4,30.3,9,45.3c3.3,18.7,10.8,36.1,17.4,53.7c17.1,41.8,33.9,83.9,49,126.4
	c12.3,40.3,22.7,81.5,31.1,122.8c13.1,58.8,25.7,118,37.9,177c2.2,12.8,5.6,25.7,7.9,38.5c2.1,8.9,4.3,18.3,2.1,27.4
	c-2.2,8.6-9.6,15.5-10.5,24.8c-3.8,11.5,0.2,23.4,2.6,34.8c4.2,13,7.5,26.7,11.1,40c12.1,43.8,21.8,88.6,30.6,133.3"/>
</svg>
