<?xml version="1.0" encoding="utf-8"?>
<!-- Generator: Adobe Illustrator 25.2.3, SVG Export Plug-In . SVG Version: 6.00 Build 0)  -->
<svg version="1.1" id="Layer_1" xmlns="http://www.w3.org/2000/svg" xmlns:xlink="http://www.w3.org/1999/xlink" x="0px" y="0px"
	 viewBox="0 0 1744.6 1014.7" style="enable-background:new 0 0 1744.6 1014.7;" xml:space="preserve">
<path fill="none" stroke="#374151" stroke-width="7.8545" stroke-miterlimit="3.9273" id="fullTrack" vector-effect="non-scaling-stroke" class="st0" d="M 896.8 567.9 C 837.7 526.6 780.1 482.8 721.7 440.3 C 700.1 423.4 677.4 406.6 654.6 391.2 C 639.8 380.7 624.4 368.8 606.3 365 C 552.7 355.6 544.5 406.2 487.7 396.9 C 451 390.9 421.8 364.5 394.4 341.3 C 364 316.8 332.7 292.1 297.9 274.2 C 249.2 246.7 193.6 233.5 146.5 203 C 132.1 195.6 121.2 181.1 115.4 166.2 C 112.1 154.8 113.3 142.4 110.5 131 C 109.2 112.6 90.8 98.4 72.9 99.1 C 53.8 98.5 32.7 106.4 16.4 92.6 C 5.5 81.9 8.1 65 12.4 51.6 C 17.3 33 30.6 17.7 48.4 10.7 C 74.5 2.4 101.8 16.5 121.2 32.8 C 137.2 48.6 144.5 69.6 153.1 89.3 C 171.8 133.1 216 156.1 258.7 169.5 C 431.7 224.2 603.5 283.4 775 341.3 C 845.3 363.1 913.3 391.6 983.6 410.8 C 1026.3 417.7 1029.6 387.4 1060.5 379.7 C 1083.5 377.5 1098.1 397.4 1110.4 413.3 C 1122.2 427.6 1137.2 439 1151.3 450.1 C 1222.1 493.1 1304.4 512.5 1381.2 539.3 C 1440.8 557.6 1499.4 577.7 1557.9 595.8 C 1601.9 611 1650.7 620.2 1682.3 655.5 C 1728.6 700.1 1736.1 766.5 1734.6 826.5 C 1734 861.8 1740.9 897.7 1732.1 931.2 C 1719.9 994.9 1640.7 1036.9 1596.3 979.4 C 1565.8 938 1600.4 887.6 1630.7 858.3 C 1656.1 828.2 1685.3 786.4 1669.1 747 C 1660.2 730.4 1640.6 722.5 1623.3 724.1 C 1605.9 726.6 1591.9 736.4 1577.5 743.7 C 1552.8 756.1 1524.9 763.6 1498.1 765 C 1420.5 769.6 1389.3 727.1 1330.4 692.2 C 1272.6 667.2 1232.4 702.4 1245.3 761.8 C 1247 780.5 1237.1 802.2 1215.8 796.1 C 1202.8 791.4 1192.9 781.3 1182.3 774 C 1159.4 757.5 1136.8 739.9 1114.4 724.1 C 1042.1 671 969.8 619.4 896.8 567.9 Z"/>
<path fill="none" stroke="#EF4444" stroke-width="1.9636" stroke-miterlimit="3.9273" id="sector1" vector-effect="non-scaling-stroke" class="st1" d="M896.8,567.9c-75.5-52.9-149-109.1-223.4-163.6
	c-33.4-23.9-68.6-55.2-111.3-32.7c-14.4,9.8-28.8,22.1-46.6,24.5c-49.9,10.3-90.8-29.6-126-58.9c-29-22.9-58.6-46.2-91.6-63
	c-52.6-30.3-115.5-42.5-163.6-80.2c-23.4-19.8-19.8-42.2-24.5-68.7c-5.1-14.7-18-25.1-33.5-26.2c-13.7-0.6-27.2,2.4-40.9,1.6
	C5.6,96.4,4.6,70.3,14,46.7"/>
<path fill="none" stroke="#3B82F6" stroke-width="1.9636" stroke-miterlimit="3.9273" id="sector2" vector-effect="non-scaling-stroke" class="st2" d="M14,46.7C33.2-6.1,91.8,1.2,124.5,36.9c13.1,13,19.6,30.7,26.2,47.5
	c6.9,16.2,17.2,30.8,29.5,43.4c27.4,26.1,64.1,36.6,99,48.3c41.7,13.3,83.9,26.3,125.2,40.9c128.8,41.8,257,86.1,385.4,129.3
	c55.4,17.7,110,38.7,165.3,56.5c21.2,7.6,45.2,14.3,66.3,2.5c10.5-7.3,19.3-17.8,31.1-22.9c17.2-7.5,36.4,3.1,46.6,17.2
	c30.3,41,74.9,68.5,122.7,85.1c45.7,18.6,93,33,139.9,48.3"/>
<path fill="none" stroke="#FBBF24" stroke-width="1.9636" stroke-miterlimit="3.9273" id="sector3" vector-effect="non-scaling-stroke" class="st3" d="M1361.5,532.7c62.9,20,125.8,41,189,60.5c34.2,12.9,72.2,19.1,103.1,39.3
	c37.5,22.3,64.3,63.2,73.6,105.5c9.5,36.2,5.8,74.3,8.2,111.3c2.7,53,4.1,117-49.1,146.5c-60.1,34.9-123.8-21.9-94.1-85.9
	c15.2-34.7,49-56.4,66.3-90c10.5-20.4,20.2-44.1,13.1-67.1c-6.9-19.4-28.1-30.7-48.3-28.6c-18.6,2.9-33.8,13.4-49.9,22.1
	c-31,12.8-65,22.3-99,18c-87.7-0.1-127.3-100.4-201.3-76.1c-21.3,8.5-29.2,28.5-30.3,49.9c0.3,17.2,7.4,37.7-4.9,52.4
	c-15.4,16.2-35.8-1.1-49.1-11.5c-16.8-12.1-33.1-24.8-49.9-36.8c-79.9-59-161-117-242.2-174.3"/>
</svg>
