<?xml version="1.0" encoding="utf-8"?>
<!-- Generator: Adobe Illustrator 25.2.3, SVG Export Plug-In . SVG Version: 6.00 Build 0)  -->
<svg version="1.1" id="Layer_1" xmlns="http://www.w3.org/2000/svg" xmlns:xlink="http://www.w3.org/1999/xlink" x="0px" y="0px"
	 viewBox="0 0 587 995.6" style="enable-background:new 0 0 587 995.6;" xml:space="preserve">

<path fill="none" stroke="#374151" stroke-width="7.8545" stroke-miterlimit="3.9273" id="fullTrack" vector-effect="non-scaling-stroke" class="st0" d="M 33.4 695.6 C 59.7 658.7 86.4 622 113 585.3 C 135.7 555.2 153.8 515.1 192 502.3 C 234.6 486.9 271.3 512.1 314.2 493.8 C 339.9 482.6 357.5 459.7 378.4 442.1 C 393.1 426.7 417.1 407.4 435.8 427.9 C 449.7 442.6 437.6 471.9 458.5 481.3 C 490.5 490.7 497.8 434.5 496.6 412.5 C 495.6 380.6 474.7 354.2 450.6 335.2 C 396.4 290 341.6 244.9 288.6 198.2 C 264.3 178.4 242.4 154.3 215.8 137.9 C 198.2 129.5 173.4 128.3 160.7 144.7 C 145.9 160.1 153.5 184 143.6 201.5 C 133 219.5 108.8 219.2 98.1 202 C 89 189.8 91 173.2 95.8 159.9 C 114.2 116.2 141.3 72.3 183.9 49.6 C 220.8 30.3 263.3 27.9 303.3 21.2 C 331 16.3 359.4 14.6 386.9 11 C 417.9 6.3 451.2 3.5 477.8 22.4 C 542.7 66 522 204.6 539.8 275.3 C 549.9 314.3 574.3 345.4 562 387.3 C 556.6 406.8 548.5 427.1 555.8 447 C 562.4 470.6 583.3 486.6 579.7 512.9 C 576.1 551.8 537.2 561.7 514.9 587.4 C 496.8 608.9 483.2 633.9 471.1 658.5 C 436.6 730.7 404.3 803.7 368.8 874.5 C 355.3 899.4 342.6 924.4 327.3 947.3 C 312.2 975.3 282.9 996.4 251.1 985.9 C 214 977.5 206.4 935 186.9 908.6 C 169.6 884.2 149.9 862.2 130.6 840.4 C 117.8 828.8 108.9 808.3 90.2 807.5 C 80.3 808.8 74.8 817.9 66.3 821.1 C 47 828.3 28.6 812.1 19.1 797.2 C -3.6 759.8 8.4 727.4 33.4 695.6 Z"/>
<path fill="none" stroke="#EF4444" stroke-width="1.9636" stroke-miterlimit="3.9273" id="sector1" vector-effect="non-scaling-stroke" class="st1" d="M33.4,695.6C60.2,657.3,89,620,115.3,581.4c28-37.2,48.7-81.7,101.7-84.1
	c16.6-2,33.5,2.2,50,4c21.8,0.8,44.3-3.4,62.5-15.9c20.8-14.1,37-34.2,56.3-50c17.3-18.4,43.8-25.2,55.7,2.3c3.6,11.7,1.5,25,8,35.8
	c12.4,20.1,34.7,4.4,39.8-13.1c15.4-38.1,7.5-85.6-25-112.5C399,290.6,330.5,235.9,265.3,178.4"/>
<path fill="none" stroke="#3B82F6" stroke-width="1.9636" stroke-miterlimit="3.9273" id="sector2" vector-effect="non-scaling-stroke" class="st2" d="M265.3,178.4c-18.3-16.4-36.2-36-59.7-44.3c-32.8-9-56.1,10.8-55.7,44.3
	c-1.4,12.7-4.9,26.6-16.5,33.5c-14.2,9.2-32.6-1-38.7-15.3c-14.7-32.5,33.8-101,57.4-123.3c39.2-40.3,98.8-43.3,151.2-51.7
	c27.5-4.8,55.8-6.6,83.6-10.2c30.8-4.6,64.1-7.6,90.9,11.4c28.2,19.2,39.1,53,43.8,85.3c6.6,37.3,8.5,75.4,10.8,113.1
	c1.7,25,5.1,50.1,13.1,73.9c12.7,29.4,26.2,60.3,16.5,92.7c-3.8,16-11.6,32-8.5,48.9c3.9,34.5,35.7,49.2,23.9,88.1
	c-6.7,23.3-29.1,34.3-46.6,48.3c-16.7,13.4-30,31.3-40.4,50"/>
<path fill="none" stroke="#FBBF24" stroke-width="1.9636" stroke-miterlimit="3.9273" id="sector3" vector-effect="non-scaling-stroke" class="st3" d="M490.4,622.9c-44.2,80-77.5,165.9-119.4,247.3
	c-16.4,31.2-32.7,62.9-53.4,91.5c-17.6,26.4-54,34.7-81.3,18.8c-25.7-16.4-32.3-48.1-49.5-71.6c-24.4-33.6-52.5-64.5-80.7-94.9
	c-26.6-20.8-31.5,19.8-60.8,6.8c-26.7-11.8-41.2-44.5-37.5-72.8c1-20,14.8-36.4,25.6-52.3"/>
</svg>
